HIERARCHY
ROOT Hips
{
	OFFSET -3.958830 18.904000 13.208200
	CHANNELS 6 Xposition Yposition Zposition Zrotation Yrotation Xrotation 
	JOINT LHipJoint
	{
		OFFSET 0.000000 0.000000 0.000000
		CHANNELS 3 Zrotation Yrotation Xrotation
		JOINT LeftUpLeg
		{
			OFFSET 1.800000 -1.400000 0.085000
			CHANNELS 3 Zrotation Yrotation Xrotation
			JOINT LeftLeg
			{
				OFFSET 2.215000 -6.000000 0.000000
				CHANNELS 3 Zrotation Yrotation Xrotation
				JOINT LeftFoot
				{
					OFFSET 2.500000 -6.900000 0.000000
					CHANNELS 3 Zrotation Yrotation Xrotation
					JOINT LeftToeBase
					{
						OFFSET 0.200000 -0.500000 1.950000
						CHANNELS 3 Zrotation Yrotation Xrotation
						End Site
						{
							OFFSET 0.000000 0.000000 0.000000
						}
					}
				}
			}
		}
	}
	JOINT RHipJoint
	{
		OFFSET 0.000000 0.000000 0.000000
		CHANNELS 3 Zrotation Yrotation Xrotation
		JOINT RightUpLeg
		{
			OFFSET -1.800000 -1.400000 0.085000
			CHANNELS 3 Zrotation Yrotation Xrotation
			JOINT RightLeg
			{
				OFFSET -2.215000 -6.000000 0.000000
				CHANNELS 3 Zrotation Yrotation Xrotation
				JOINT RightFoot
				{
					OFFSET -2.500000 -6.900000 0.000000
					CHANNELS 3 Zrotation Yrotation Xrotation
					JOINT RightToeBase
					{
						OFFSET -0.200000 -0.500000 1.950000
						CHANNELS 3 Zrotation Yrotation Xrotation
						End Site
						{
							OFFSET 0.000000 0.000000 0.000000
						}
					}
				}
			}
		}
	}
	JOINT LowerBack
	{
		OFFSET 0.000000 0.000000 0.000000
		CHANNELS 3 Zrotation Yrotation Xrotation
		JOINT Spine
		{
			OFFSET -0.087000 1.940000 -0.288900
			CHANNELS 3 Zrotation Yrotation Xrotation
			JOINT Spine1
			{
				OFFSET 0.000000 1.950000 0.060000
				CHANNELS 3 Zrotation Yrotation Xrotation
				JOINT Neck
				{
					OFFSET 0.000000 0.000000 0.000000
					CHANNELS 3 Zrotation Yrotation Xrotation
					JOINT Neck1
					{
						OFFSET 0.000000 1.600000 0.340000
						CHANNELS 3 Zrotation Yrotation Xrotation
						JOINT Head
						{
							OFFSET 0.000000 1.667000 -0.240000
							CHANNELS 3 Zrotation Yrotation Xrotation
							End Site
							{
								OFFSET 0.000000 0.000000 0.000000
							}
						}
					}
				}
				JOINT LeftShoulder
				{
					OFFSET 0.000000 0.000000 0.000000
					CHANNELS 3 Zrotation Yrotation Xrotation
					JOINT LeftArm
					{
						OFFSET 2.700000 1.550000 -0.730000
						CHANNELS 3 Zrotation Yrotation Xrotation
						JOINT LeftForeArm
						{
							OFFSET 5.450000 0.000000 0.000000
							CHANNELS 3 Zrotation Yrotation Xrotation
							JOINT LeftHand
							{
								OFFSET 3.450000 0.000000 0.000000
								CHANNELS 3 Zrotation Yrotation Xrotation
								JOINT LeftHandIndex1
								{
									OFFSET 0.750000 0.000000 0.000000
									CHANNELS 3 Zrotation Yrotation Xrotation
									End Site
									{
										OFFSET 0.000000 0.000000 0.000000
									}
								}
							}
						}
					}
				}
				JOINT RightShoulder
				{
					OFFSET 0.000000 0.000000 0.000000
					CHANNELS 3 Zrotation Yrotation Xrotation
					JOINT RightArm
					{
						OFFSET -2.700000 1.550000 -0.730000
						CHANNELS 3 Zrotation Yrotation Xrotation
						JOINT RightForeArm
						{
							OFFSET -5.450000 0.000000 0.000000
							CHANNELS 3 Zrotation Yrotation Xrotation
							JOINT RightHand
							{
								OFFSET -3.450000 0.000000 0.000000
								CHANNELS 3 Zrotation Yrotation Xrotation
								JOINT RightHandIndex1
								{
									OFFSET -0.750000 0.000000 0.000000
									CHANNELS 3 Zrotation Yrotation Xrotation
									End Site
									{
										OFFSET 0.000000 0.000000 0.000000
									}
								}
							}
						}
					}
				}
			}
		}
	}
}
MOTION
Frames: 9
Frame Time: 0.016667
0.662110 17.635160 -2.355540 -6.491046 14.138331 4.719564 -14.514266 12.126044 2.651006 9.755657 -2.169843 -25.666706 -1.222702 5.152505 19.606925 -1.420351 4.459892 3.040528 -0.384350 -0.769360 -0.535840 18.925052 -11.997520 2.957199 -1.301479 1.672078 -14.566571 4.904754 -4.683090 11.926182 0.328966 -3.673288 3.241492 0.030470 1.162640 0.026460 -5.797039 2.340240 -7.158491 20.014468 3.795911 6.539256 -17.739246 5.250412 14.409499 7.925978 -0.059838 -9.516481 3.306011 9.633259 57.489037 5.249830 4.403060 10.316250 -7.478679 -13.814959 3.016058 -51.644478 -28.453246 6.684284 16.874639 -22.696528 -5.837954 -4.586328 2.576758 0.383730 0.665110 -0.801500 0.036080 -7.932259 15.055148 5.669422 79.149900 51.648975 30.621037 20.966579 29.585313 3.946391 1.821432 -1.519711 -0.900810 0.649430 0.836390 -0.206670 
0.648790 17.636490 -2.372660 -6.584655 15.259472 4.500612 -14.547300 12.043108 2.644740 9.761006 -2.109771 -25.853316 -1.045612 5.053586 19.346840 -1.482461 4.436365 3.053877 -0.406670 -0.786450 -0.578210 18.892197 -12.061844 2.997123 -1.245997 1.598544 -14.190052 5.295238 -4.747097 11.471487 0.330980 -3.729124 3.233894 0.043900 1.200760 0.017670 -5.732380 2.599686 -7.220752 18.711177 4.811831 7.366492 -13.765137 5.996729 14.769247 7.525574 1.367234 -9.265636 6.534788 6.302348 55.969172 5.297390 2.715440 9.106330 -7.427853 -15.268557 3.113563 -53.717764 -31.084455 8.336949 15.687613 -22.597700 -5.806074 -4.608242 2.539979 0.398860 0.680670 -0.822400 0.035460 -6.628573 16.046376 5.496794 75.976716 49.374892 28.209549 15.113846 24.253102 2.324183 1.785938 -1.366714 -0.935610 0.697140 0.875600 -0.204410 
0.634960 17.638740 -2.381710 -6.635869 16.019918 4.722097 -14.605628 11.974997 2.659303 9.948352 -2.051522 -26.070856 -1.274409 5.016947 18.558039 -1.548211 4.430603 3.065627 -0.451350 -0.845230 -0.611170 18.840319 -12.060719 3.020697 -1.113883 1.641304 -14.233595 5.621755 -4.774496 11.111812 0.342486 -3.725107 3.237325 0.035770 1.246170 0.018340 -5.582751 2.719722 -7.245688 16.990884 5.835171 7.806292 -9.570509 6.652496 14.729929 6.818657 2.771925 -9.151464 9.350837 3.046422 54.058221 5.211660 0.915490 7.827190 -7.338332 -16.158387 3.270955 -56.184550 -32.832362 9.572582 14.537252 -24.288601 -6.009009 -4.623031 2.483884 0.430490 0.695470 -0.835670 0.022400 -4.828989 16.549039 5.210583 72.844543 46.218053 25.583141 10.411783 19.588694 1.318430 1.771404 -1.220220 -0.981970 0.755110 0.930510 -0.208390 
0.625110 17.638880 -2.386920 -6.347375 16.424740 5.452506 -14.703724 11.941407 2.712089 9.614463 -2.135126 -26.743537 -1.292007 4.959164 18.115038 -1.598766 4.390639 3.102829 -0.483440 -0.875310 -0.641940 18.750446 -12.000256 3.017625 -1.354141 1.747725 -14.729895 6.084092 -4.787427 10.831365 0.366330 -3.681534 3.276901 0.037380 1.289220 -0.013160 -5.301414 2.661637 -7.232290 14.406831 6.908694 7.991735 -5.039839 7.298449 14.333768 5.711833 4.105290 -9.166953 11.647875 0.341466 51.555802 5.397280 -0.598140 6.714010 -6.505589 -16.198763 3.408097 -59.606334 -33.896619 10.655000 12.520990 -27.436234 -6.110083 -4.601133 2.441712 0.455920 0.705350 -0.854350 0.023320 -3.103924 16.285637 4.846282 70.296728 42.560260 22.536072 6.670548 16.060886 0.583655 1.760427 -1.121611 -1.031850 0.827730 0.959030 -0.209500 
0.623550 17.633270 -2.389000 -6.138131 16.672339 6.385260 -14.806657 11.924898 2.774568 9.175595 -2.273065 -27.668319 -1.030122 4.825012 17.863980 -1.598192 4.262486 3.149218 -0.435540 -0.793350 -0.616190 18.660359 -11.904736 3.007547 -1.518448 1.864252 -15.372453 6.425085 -4.726713 10.468504 0.347764 -3.591680 3.315510 0.066330 1.257890 -0.022290 -5.001529 2.510210 -7.199726 11.951364 7.691916 7.970285 -0.928724 7.678140 13.839195 4.531262 5.234572 -9.276104 13.194006 -2.063079 48.825863 5.170470 -1.730460 4.778310 -5.369872 -15.604986 3.529670 -62.926209 -34.271054 11.225620 9.730476 -31.710639 -6.003042 -4.523724 2.480808 0.467540 0.681780 -0.813270 0.040440 -1.680535 15.370347 4.506520 68.430537 38.666860 18.909462 3.219428 14.563694 -0.136789 1.754503 -1.094648 -1.006300 0.851010 0.920900 -0.200340 
0.629670 17.622030 -2.388150 -5.822509 16.808190 7.663063 -14.915470 11.895103 2.868938 8.603804 -2.514214 -28.899134 -0.969929 4.767264 17.797002 -1.538942 4.107411 3.211204 -0.362830 -0.660000 -0.573980 18.570287 -11.765831 2.986825 -1.875588 2.006555 -16.269133 6.962299 -4.646660 9.983719 0.320297 -3.480324 3.374038 0.102140 1.201120 -0.042120 -4.681717 2.290431 -7.154818 9.390494 8.297898 7.593732 2.752930 7.889858 13.215090 3.412562 6.167942 -9.479365 14.115814 -4.135600 45.906325 4.519270 -2.492680 3.100380 -3.710199 -14.333534 3.691684 -66.146856 -33.838267 11.399853 5.352384 -37.139096 -5.284352 -4.420431 2.580770 0.446600 0.651070 -0.756270 0.076050 -1.030274 13.739512 4.226554 67.081851 34.636334 15.047814 0.786794 15.677647 -0.819678 1.744488 -1.103566 -0.946570 0.858690 0.836790 -0.177090 
0.645930 17.611480 -2.383980 -5.423981 16.856261 9.195374 -15.023639 11.842134 2.973343 8.050312 -2.808795 -30.070631 -1.383181 4.803350 17.442724 -1.519302 4.020638 3.259487 -0.333690 -0.598160 -0.546010 18.488942 -11.592726 2.955345 -2.363739 2.184418 -17.316637 7.484766 -4.541532 9.306248 0.324271 -3.372849 3.434638 0.121980 1.178500 -0.064680 -4.363954 2.041918 -7.079138 6.691576 8.857016 6.812433 6.371720 8.044499 12.573848 2.361796 6.870527 -9.609396 14.503138 -5.822105 42.568547 3.477570 -3.127520 1.926880 -2.241113 -12.690284 3.879391 -69.289204 -32.540366 11.408695 -0.709095 -43.210727 -3.705689 -4.364915 2.690861 0.436140 0.646530 -0.733270 0.093930 -0.368670 11.812873 3.866314 65.626307 30.813394 11.444820 -1.389034 17.110025 -1.433890 1.718922 -1.095562 -0.932160 0.880890 0.789420 -0.171890 
0.672600 17.609990 -2.384640 -4.840910 17.268146 10.679709 -15.117523 11.812057 3.085631 7.148021 -3.213531 -31.005716 -1.831754 4.754420 16.762188 -1.522695 3.902287 3.309303 -0.326210 -0.561190 -0.530380 18.415392 -11.411348 2.917879 -3.244723 2.381472 -18.505473 8.142679 -4.520109 8.988301 0.332843 -3.292750 3.460306 0.135880 1.157780 -0.079670 -4.089432 1.723189 -7.013996 4.269383 9.018404 6.199881 9.519870 7.876354 12.060372 1.363409 7.266133 -9.662653 14.364208 -6.941688 39.272441 2.546850 -3.498610 0.679290 -1.098792 -11.105533 4.137968 -71.664220 -30.407547 11.031338 -8.673226 -49.890200 -0.689501 -4.333976 2.822600 0.430740 0.642430 -0.713690 0.090960 0.440612 10.025386 3.468141 63.910974 27.384411 8.034451 -3.496699 18.630293 -1.986337 1.696611 -1.076664 -0.925660 0.896680 0.770940 -0.171670 
0.698180 17.610960 -2.383100 -4.055684 17.792583 12.258940 -15.201152 11.807180 3.198663 6.019514 -3.675252 -31.702294 -2.270907 4.610973 15.657671 -1.545899 3.744980 3.372187 -0.307680 -0.524320 -0.504640 18.349444 -11.227972 2.865829 -4.316094 2.618116 -20.027691 8.692275 -4.595430 9.435561 0.347394 -3.234503 3.479234 0.153720 1.132870 -0.084330 -3.843584 1.347626 -6.937277 1.883508 9.009870 5.522950 12.250506 7.568862 11.549297 0.437585 7.466632 -9.577608 13.900222 -7.922141 35.989773 1.529640 -3.875990 -0.625310 -0.560681 -9.598323 4.388993 -73.207060 -27.626331 10.588303 -18.913313 -56.001162 4.625125 -4.316514 2.947887 0.430190 0.644420 -0.697430 0.085420 1.642270 8.358414 3.009873 61.981111 24.167771 4.876123 -5.585592 20.199836 -2.493418 1.663176 -1.061972 -0.917610 0.902250 0.752720 -0.180830 
